Coordinates
version=1
nRows=37
nColumns=38
inDegrees=no

Units are S.I. units (second, meters, Newtons, ...)
If the header above contains a line with 'inDegrees', this indicates whether rotational values are in degrees (yes) or radians (no).

endheader
time	pelvis_tilt	pelvis_list	pelvis_rotation	pelvis_tx	pelvis_ty	pelvis_tz	hip_flexion_r	hip_adduction_r	hip_rotation_r	knee_angle_r	ankle_angle_r	subtalar_angle_r	mtp_angle_r	hip_flexion_l	hip_adduction_l	hip_rotation_l	knee_angle_l	ankle_angle_l	subtalar_angle_l	mtp_angle_l	lumbar_extension	lumbar_bending	lumbar_rotation	arm_flex_r	arm_add_r	arm_rot_r	elbow_flex_r	pro_sup_r	wrist_flex_r	wrist_dev_r	arm_flex_l	arm_add_l	arm_rot_l	elbow_flex_l	pro_sup_l	wrist_flex_l	wrist_dev_l
20.84	2.56363	1.46764	-0.82815	0.643148	-0.245251	0.947025	-0.0563679	0.0174889	-0.0538894	0.360288	-0.184	0	0	-0.0557273	-0.0933612	-0.0223838	0.348615	-0.151683	0	0	-0.223459	0.0802763	0.232788	0.214429	-0.536527	-0.0957276	1.707	1.5708	0	0	0.424481	-0.706566	0.270065	1.20521	1.5708	0	0
20.85	2.54122	1.46947	-0.808328	0.643296	-0.244865	0.946843	-0.0526233	0.0176265	-0.0529485	0.361894	-0.183842	0	0	-0.0533109	-0.0934263	-0.0231327	0.349056	-0.150946	0	0	-0.228027	0.081165	0.212034	0.241286	-0.529454	-0.0656434	1.70304	1.5708	0	0	0.373308	-0.713746	0.231466	1.19954	1.5708	0	0
20.86	2.52588	1.4705	-0.795302	0.643481	-0.24449	0.946711	-0.0501145	0.0178185	-0.0522088	0.363439	-0.183508	0	0	-0.0522483	-0.0935667	-0.0234761	0.349152	-0.150126	0	0	-0.233391	0.0815401	0.192861	0.265755	-0.522806	-0.0379748	1.69939	1.5708	0	0	0.327951	-0.71881	0.198901	1.19086	1.5708	0	0
20.87	2.51656	1.47078	-0.787977	0.643732	-0.244133	0.946626	-0.0487829	0.0183091	-0.0513876	0.364623	-0.18296	0	0	-0.0520928	-0.0939501	-0.0238193	0.349426	-0.149141	0	0	-0.239234	0.0809713	0.17651	0.286044	-0.516929	-0.0148869	1.6967	1.5708	0	0	0.290486	-0.720909	0.172964	1.17789	1.5708	0	0
20.88	2.51564	1.4703	-0.788621	0.643976	-0.243815	0.94658	-0.0486796	0.0188033	-0.0512343	0.365858	-0.182533	0	0	-0.0528877	-0.0944716	-0.0247024	0.350045	-0.148172	0	0	-0.245465	0.0794737	0.164108	0.300725	-0.512254	0.00150451	1.69582	1.5708	0	0	0.263337	-0.720586	0.15619	1.15905	1.5708	0	0
20.89	2.52365	1.4694	-0.797408	0.64414	-0.243588	0.946566	-0.0496063	0.0188618	-0.052034	0.367155	-0.181982	0	0	-0.0544305	-0.094719	-0.0257346	0.35061	-0.147458	0	0	-0.251606	0.0776162	0.154264	0.31186	-0.508865	0.013767	1.69559	1.5708	0	0	0.246229	-0.718692	0.149373	1.13359	1.5708	0	0
20.9	2.54299	1.46773	-0.816684	0.64428	-0.243428	0.946622	-0.0521378	0.0185634	-0.0538934	0.368258	-0.181063	0	0	-0.0573895	-0.0946876	-0.0262856	0.350771	-0.146918	0	0	-0.257533	0.0755513	0.148783	0.317534	-0.507301	0.019648	1.69666	1.5708	0	0	0.243076	-0.714952	0.157988	1.09901	1.5708	0	0
20.91	2.56741	1.465	-0.84069	0.644482	-0.243218	0.946744	-0.0565615	0.0187748	-0.0554636	0.368013	-0.180195	0	0	-0.0616252	-0.0952043	-0.0273841	0.350922	-0.146468	0	0	-0.26206	0.0734109	0.151676	0.313096	-0.5085	0.0139012	1.7006	1.5708	0	0	0.260436	-0.709714	0.193564	1.05158	1.5708	0	0
20.92	2.59182	1.46176	-0.864416	0.644729	-0.242967	0.946882	-0.0619879	0.0194645	-0.0565181	0.3666	-0.180118	0	0	-0.0661803	-0.0962217	-0.0291135	0.351382	-0.145851	0	0	-0.264709	0.0712187	0.161991	0.299339	-0.511745	-0.00260537	1.70718	1.5708	0	0	0.296528	-0.702099	0.256312	0.991249	1.5708	0	0
20.93	2.61833	1.45838	-0.890038	0.644896	-0.24279	0.947032	-0.0675144	0.01978	-0.0575445	0.365668	-0.18011	0	0	-0.0710127	-0.0968016	-0.0305358	0.351656	-0.145279	0	0	-0.266075	0.068864	0.177446	0.279301	-0.516452	-0.0264603	1.71528	1.5708	0	0	0.346265	-0.691045	0.341836	0.920455	1.5708	0	0
20.94	2.64364	1.45512	-0.914263	0.644964	-0.242666	0.947161	-0.0726971	0.0198072	-0.0586658	0.365332	-0.179871	0	0	-0.075672	-0.0970192	-0.0313536	0.352094	-0.144644	0	0	-0.266478	0.0664326	0.195043	0.256293	-0.521943	-0.0533401	1.72377	1.5708	0	0	0.402016	-0.675405	0.441581	0.844144	1.5708	0	0
20.95	2.66709	1.45192	-0.936277	0.645031	-0.242513	0.947271	-0.0779937	0.0199067	-0.0598449	0.364544	-0.179267	0	0	-0.0801128	-0.0973776	-0.0322026	0.352654	-0.14413	0	0	-0.266271	0.0634878	0.213776	0.230801	-0.527387	-0.0826481	1.73255	1.5708	0	0	0.460809	-0.654988	0.553327	0.765933	1.5708	0	0
20.96	2.68916	1.44882	-0.956508	0.645077	-0.242323	0.947383	-0.0834128	0.0200265	-0.0611069	0.363262	-0.178607	0	0	-0.0844292	-0.0977753	-0.032872	0.352978	-0.14396	0	0	-0.266183	0.0597944	0.231605	0.205106	-0.532217	-0.111856	1.74105	1.5708	0	0	0.514841	-0.630066	0.663426	0.692425	1.5708	0	0
20.97	2.70986	1.44584	-0.975226	0.645104	-0.242091	0.947493	-0.0887695	0.0201253	-0.0623578	0.361787	-0.178065	0	0	-0.0886989	-0.0980352	-0.0332169	0.352853	-0.144023	0	0	-0.26644	0.0555232	0.248184	0.179929	-0.536247	-0.140147	1.74935	1.5708	0	0	0.560298	-0.602308	0.764275	0.628086	1.5708	0	0
20.98	2.72744	1.44324	-0.990911	0.645129	-0.241809	0.947577	-0.0935487	0.0202457	-0.0635623	0.360616	-0.177383	0	0	-0.0925596	-0.0982283	-0.0333255	0.35261	-0.143958	0	0	-0.266812	0.0511707	0.262763	0.156784	-0.539266	-0.165838	1.75708	1.5708	0	0	0.59432	-0.57422	0.847307	0.57597	1.5708	0	0
20.99	2.74143	1.44115	-1.00328	0.645164	-0.241495	0.947624	-0.0974487	0.0203326	-0.0645067	0.359888	-0.176719	0	0	-0.095675	-0.0984933	-0.0338371	0.352704	-0.143522	0	0	-0.267228	0.0471511	0.275615	0.135849	-0.541495	-0.188903	1.76461	1.5708	0	0	0.617061	-0.546928	0.906955	0.535513	1.5708	0	0
21	2.74206	1.44108	-1.00288	0.645126	-0.241169	0.947614	-0.0982181	0.0206041	-0.0640935	0.359547	-0.176358	0	0	-0.0961178	-0.0987537	-0.0338575	0.352504	-0.143332	0	0	-0.265787	0.0475974	0.272667	0.137296	-0.540225	-0.185904	1.76347	1.5708	0	0	0.611854	-0.534299	0.918731	0.517775	1.5708	0	0
21.01	2.74108	1.44146	-1.00099	0.645103	-0.240811	0.947592	-0.0984027	0.0208145	-0.0635575	0.35933	-0.175915	0	0	-0.0961212	-0.0988247	-0.033345	0.352175	-0.143295	0	0	-0.263619	0.048302	0.27098	0.137027	-0.538556	-0.184991	1.7632	1.5708	0	0	0.605265	-0.521138	0.921434	0.505542	1.5708	0	0
21.02	2.73742	1.44198	-0.996933	0.645131	-0.240366	0.947543	-0.0982962	0.0212656	-0.0629122	0.359164	-0.175703	0	0	-0.0960063	-0.0991436	-0.0333442	0.351868	-0.143201	0	0	-0.261104	0.0492521	0.270406	0.135717	-0.536736	-0.185283	1.76378	1.5708	0	0	0.597261	-0.508719	0.91707	0.500384	1.5708	0	0
21.03	2.73269	1.44263	-0.992161	0.645172	-0.239902	0.94748	-0.0978793	0.0216519	-0.0623555	0.359269	-0.175599	0	0	-0.0957525	-0.099486	-0.0335345	0.351673	-0.14299	0	0	-0.258424	0.0500318	0.270679	0.133627	-0.534981	-0.186908	1.76492	1.5708	0	0	0.589093	-0.497343	0.911266	0.501694	1.5708	0	0
21.04	2.72955	1.44315	-0.989312	0.645236	-0.239427	0.947429	-0.0976008	0.0217734	-0.0620749	0.359489	-0.17558	0	0	-0.09583	-0.0996776	-0.0338084	0.351352	-0.142858	0	0	-0.255854	0.0505891	0.271572	0.131205	-0.533294	-0.189201	1.76636	1.5708	0	0	0.58119	-0.487117	0.906259	0.508071	1.5708	0	0
21.05	2.72426	1.44391	-0.984578	0.645309	-0.238905	0.947343	-0.0969291	0.021941	-0.0619309	0.359769	-0.175512	0	0	-0.0956522	-0.099919	-0.0340876	0.350937	-0.142658	0	0	-0.252859	0.0510212	0.273482	0.127231	-0.531601	-0.193035	1.76881	1.5708	0	0	0.572993	-0.47727	0.899541	0.519147	1.5708	0	0
21.06	2.71775	1.44492	-0.978983	0.645441	-0.238339	0.947238	-0.0959983	0.0221553	-0.0615649	0.359889	-0.175347	0	0	-0.0952522	-0.100134	-0.0342884	0.350609	-0.142403	0	0	-0.249682	0.0510557	0.276312	0.121856	-0.529961	-0.198186	1.77205	1.5708	0	0	0.564202	-0.468177	0.891219	0.535697	1.5708	0	0
21.07	2.71049	1.44642	-0.973034	0.645619	-0.237702	0.947103	-0.0946782	0.0221524	-0.0610379	0.359831	-0.17508	0	0	-0.0945883	-0.100074	-0.0345996	0.350148	-0.142096	0	0	-0.246126	0.0506981	0.279889	0.115294	-0.528024	-0.204262	1.77604	1.5708	0	0	0.554371	-0.459854	0.881891	0.557281	1.5708	0	0
21.08	2.70164	1.44838	-0.965802	0.645814	-0.23699	0.946922	-0.0929354	0.0219567	-0.0605387	0.359623	-0.174808	0	0	-0.0936127	-0.0998496	-0.0350752	0.349608	-0.141627	0	0	-0.242226	0.049918	0.283866	0.107826	-0.525806	-0.21099	1.78074	1.5708	0	0	0.543569	-0.452315	0.871176	0.58308	1.5708	0	0
21.09	2.69035	1.45074	-0.956463	0.646044	-0.236224	0.946701	-0.0907162	0.0217699	-0.0597667	0.359487	-0.17453	0	0	-0.0922605	-0.0995909	-0.0355663	0.348961	-0.141143	0	0	-0.238234	0.0485897	0.287993	0.099854	-0.523548	-0.218122	1.78601	1.5708	0	0	0.531721	-0.445457	0.858534	0.612815	1.5708	0	0
21.1	2.69256	1.44949	-0.961114	0.646256	-0.235869	0.946657	-0.09183	0.0221981	-0.0583616	0.360602	-0.173922	0	0	-0.0943792	-0.0998854	-0.0362596	0.349414	-0.140236	0	0	-0.238472	0.0491791	0.287995	0.100792	-0.521382	-0.217455	1.78747	1.5708	0	0	0.515482	-0.440987	0.837655	0.646672	1.5708	0	0
21.11	2.70264	1.44655	-0.973711	0.646477	-0.235509	0.946769	-0.0953529	0.0227494	-0.0575614	0.361107	-0.173173	0	0	-0.0989854	-0.100415	-0.0376925	0.349097	-0.138889	0	0	-0.241984	0.0499165	0.283858	0.107568	-0.519066	-0.210556	1.78747	1.5708	0	0	0.491787	-0.440117	0.802223	0.689645	1.5708	0	0
21.12	2.71708	1.44347	-0.990635	0.64661	-0.235166	0.946914	-0.0993414	0.0224004	-0.057726	0.360793	-0.172826	0	0	-0.10403	-0.100503	-0.040459	0.348564	-0.137968	0	0	-0.246272	0.0503794	0.277129	0.117697	-0.517351	-0.199193	1.78605	1.5708	0	0	0.464349	-0.44008	0.76199	0.735661	1.5708	0	0
21.13	2.72989	1.44054	-1.00597	0.64675	-0.234757	0.947052	-0.103379	0.0221079	-0.0579224	0.360096	-0.172932	0	0	-0.109039	-0.100397	-0.0423093	0.347909	-0.137421	0	0	-0.249318	0.050732	0.271917	0.125944	-0.516157	-0.189099	1.78404	1.5708	0	0	0.440712	-0.438362	0.733013	0.777246	1.5708	0	0
21.14	2.74285	1.43723	-1.02139	0.646917	-0.234303	0.947224	-0.108223	0.0221028	-0.0578915	0.358822	-0.173081	0	0	-0.114615	-0.100369	-0.043713	0.347318	-0.136656	0	0	-0.253059	0.0507004	0.266713	0.133801	-0.514971	-0.179479	1.78238	1.5708	0	0	0.418012	-0.435222	0.70512	0.817436	1.5708	0	0
21.15	2.75395	1.43381	-1.03504	0.647109	-0.233778	0.947398	-0.113588	0.0224826	-0.0574719	0.356713	-0.173328	0	0	-0.120344	-0.100531	-0.0453545	0.346564	-0.135904	0	0	-0.256837	0.0503961	0.261857	0.140918	-0.513737	-0.170506	1.78105	1.5708	0	0	0.395598	-0.43112	0.678588	0.857224	1.5708	0	0
21.16	2.76073	1.43085	-1.04441	0.647312	-0.2332	0.94754	-0.118396	0.0231584	-0.0567553	0.354603	-0.173698	0	0	-0.125399	-0.100947	-0.0469422	0.345603	-0.135255	0	0	-0.259245	0.0504304	0.258355	0.146222	-0.512381	-0.163104	1.77984	1.5708	0	0	0.376808	-0.425321	0.660407	0.892815	1.5708	0	0
21.17	2.76579	1.42806	-1.05194	0.647526	-0.232621	0.947661	-0.123001	0.0239358	-0.0557373	0.352067	-0.174197	0	0	-0.130185	-0.101459	-0.0482725	0.344238	-0.13471	0	0	-0.261731	0.050409	0.255168	0.150785	-0.511189	-0.156672	1.77921	1.5708	0	0	0.358933	-0.420237	0.645064	0.929216	1.5708	0	0
21.18	2.76907	1.42539	-1.05769	0.647771	-0.232006	0.947757	-0.127416	0.0249183	-0.0544865	0.349269	-0.17482	0	0	-0.134885	-0.102012	-0.0485232	0.342878	-0.134186	0	0	-0.264075	0.0503981	0.252366	0.154637	-0.510259	-0.150829	1.7792	1.5708	0	0	0.342752	-0.414443	0.631675	0.964238	1.5708	0	0
21.19	2.77079	1.4229	-1.06194	0.648054	-0.231348	0.947831	-0.131528	0.0260881	-0.0530891	0.346658	-0.175394	0	0	-0.139414	-0.102566	-0.0476881	0.341716	-0.133461	0	0	-0.265681	0.0503675	0.251139	0.156401	-0.509377	-0.147093	1.78007	1.5708	0	0	0.329818	-0.408139	0.623088	0.99713	1.5708	0	0
21.2	2.77199	1.42016	-1.06563	0.648422	-0.230664	0.947901	-0.136057	0.0276527	-0.0512248	0.343603	-0.176113	0	0	-0.144308	-0.103316	-0.0460476	0.340277	-0.132465	0	0	-0.26762	0.0501228	0.250566	0.156923	-0.508456	-0.144767	1.78234	1.5708	0	0	0.318026	-0.4026	0.615564	1.03118	1.5708	0	0
